<svg xmlns="http://www.w3.org/2000/svg" xmlns:xlink="http://www.w3.org/1999/xlink" viewBox="0 0 455.66 322.49"><defs><style>.cls-1{fill:#32c1bd;}.cls-2{isolation:isolate;}.cls-11,.cls-3{fill:#f49e8b;}.cls-4{fill:#7391c8;}.cls-5{fill:#db4646;}.cls-6{fill:#4b508d;}.cls-7{opacity:0.34;}.cls-11,.cls-7{mix-blend-mode:multiply;}.cls-8{fill:#606060;}.cls-9{fill:#4d4dae;}.cls-10{fill:#ffb59b;}.cls-11{opacity:0.25;}.cls-12,.cls-17,.cls-18{fill:none;stroke-linecap:round;stroke-linejoin:round;}.cls-12{stroke:#4d4dae;}.cls-13{fill:#403f5b;}.cls-14{fill:#fff;}.cls-15{fill:#feeae3;}.cls-16{clip-path:url(#clip-path);}.cls-17,.cls-18{stroke:#fff;}.cls-17{stroke-width:0.81px;}.cls-18{stroke-width:0.64px;}.cls-19{font-size:30.25px;font-family:JellyCorner, Jelly Corner;}.cls-19,.cls-39,.cls-40{fill:#fffaec;}.cls-19,.cls-24{letter-spacing:0.05em;}.cls-20{letter-spacing:0.04em;}.cls-21{letter-spacing:0.1em;}.cls-22{letter-spacing:0.04em;}.cls-23{letter-spacing:0.03em;}.cls-25{letter-spacing:0.03em;}.cls-26{letter-spacing:0.08em;}.cls-27{letter-spacing:0.03em;}.cls-28{letter-spacing:0.06em;}.cls-29{letter-spacing:0.03em;}.cls-30{letter-spacing:0.01em;}.cls-31{letter-spacing:0.03em;}.cls-32{letter-spacing:0.04em;}.cls-33{letter-spacing:0.04em;}.cls-34{letter-spacing:0.05em;}.cls-35{letter-spacing:-0.02em;}.cls-36{letter-spacing:0.03em;}.cls-37{letter-spacing:0.05em;}.cls-38{letter-spacing:0.04em;}.cls-40{fill-rule:evenodd;}</style><clipPath id="clip-path"><path class="cls-1" d="M163.19,143.06s-6,2.05-8.78,6.34c-5.73,8.92-21.87,22.48-21.87,22.48L110,146.28l-18.83,7.09s7.3,36,14.36,45.54c21.06,28.28,46.74,3.9,46.74,3.9l-.94,42.85,89.1,4c-1.33-19-5.78-68.73-14.53-91.59-8.7-12.74-23.27-16.55-23.27-16.55-1.26,2.2-12,23.67-16.1,24.61S163.92,144.77,163.19,143.06Z"/></clipPath></defs><g class="cls-2"><g id="Capa_2" data-name="Capa 2"><g id="Layer_1" data-name="Layer 1"><rect class="cls-3" x="2.19" width="453.47" height="322.49" transform="translate(457.85 322.49) rotate(180)"/><path class="cls-4" d="M2.05,275.49S-11.27,112.2,30,83.25c67.81-47.53,83.19,32.86,137,25.17,47.7-6.81,114.3-170.56,237.2-72.47C476,93.22,371.14,275.47,371.14,275.47Z"/><path class="cls-5" d="M156.72,232l-12.39,43.53h90.3s-1-21.32-1.37-28.2c-.33-6.54-5.78-23.52-5.78-23.52Z"/><path class="cls-6" d="M226.21,159.92a11.91,11.91,0,0,0,10.38-10.84,16.4,16.4,0,0,0-2.52-8.93c-1.62-2.8-3.52-5.33-3.67-8.69-.12-3,1.21-5.73,2-8.58,1-3.65,1.54-7.81-.52-11.21-2.55-4.21-4.4-7.46-8.58-9.25-5.36-2.29-3.78-9-4.71-14.14-1.45-8-4.41-11.86-8-19.14-2.24-4.52-10.89-8.72-16.08-9.54a42.29,42.29,0,0,0-21.95,2.47A9.24,9.24,0,0,0,168,65.72c-4.84.61-8,2.12-10.72,6-2.95,4.24-8.22,8.66-7.31,14,.5,2.88,1.7,6,.2,8.55-1.05,1.76-3.12,2.57-4.84,3.69-5.22,3.38-3.47,8.92.6,13.91,1.69,2.06,3.8,3.76,5.36,5.93s2.52,5,1.5,7.5c-.86,2.09-2.92,3.42-4.1,5.35-2.43,4-5.31,14.28-3.86,18.33,1,2.75,2.38,9,4.47,11s9.12-4.15,12-4.29"/><g class="cls-7"><path class="cls-8" d="M169.75,69a14.6,14.6,0,0,0-11.55,7.19,18.4,18.4,0,0,0-1.77,13.7c.46,1.81,1.15,3.74.5,5.49-.57,1.51-2,2.49-3.23,3.53-2.06,1.73-3.88,4.1-3.87,6.79,0,2.3,1.35,4.39,2.91,6.08a67.86,67.86,0,0,1,4.78,5,13.2,13.2,0,0,1,2.52,9.41c-.33,2.73-1.5,5.28-2,8a17.51,17.51,0,0,0,2.91,13.45,8.09,8.09,0,0,0,3.76,3.12c2.65.91,5.48-.38,8.08-1.41a45.56,45.56,0,0,1,18-3.16,12,12,0,0,0,4.75-.43,8.34,8.34,0,0,0,4-4.39,19.82,19.82,0,0,0,.53-15.69"/></g><g class="cls-7"><path class="cls-9" d="M209.19,92.36a36.45,36.45,0,0,0,.19,9.22,12.38,12.38,0,0,0,4.53,7.81c2,1.43,4.45,2,6.69,3s4.48,2.65,4.93,5.06c.64,3.38-2.4,6.37-2.77,9.78-.48,4.54,3.69,8.09,5.41,12.31a10.81,10.81,0,0,1-.21,8.84,8.87,8.87,0,0,1-7.21,4.89c-2.68.16-5.26-1-7.52-2.52-9.06-5.91-14.33-16-20.67-24.74"/></g><path class="cls-10" d="M176.32,136.77c.64.6,0-10,0-10l7.65,2.08,7.65-2.08s-.15,9.48,0,10.34,21.18,8.77,21.18,8.77-26.16,19.59-36,21.31C170,168.37,164.79,143.66,163,143,163,143,176.23,136.68,176.32,136.77Z"/><path class="cls-11" d="M191.57,131.5s-7.55,4.92-15.18,3.44l-.07-8.19h15.3Z"/><path class="cls-10" d="M160.25,99h0c.52,2.64,1.16,5.42,1.6,8.61,1.17,8.4,3.68,12.27,9.39,16,6,3.89,7.78,5.41,12.95,5.6,5.16-.19,7-1.71,12.94-5.6,5.71-3.71,8.22-7.58,9.39-16,.26-1.88.59-3.61.92-5.25.25-1.23.5-2.4.72-3.55a.11.11,0,0,0,0,0v0c.82-4.21,1.32-8.11.19-12.81-1.16-4.87-5.19-10.9-11.31-14.71h0a24.21,24.21,0,0,0-12.86-3.71c-9.08,0-13,6-15.52,15.42-1.34,5-6.33,7-6.91,9.43C160.62,97.16,159.4,94.7,160.25,99Z"/><path class="cls-12" d="M184.7,104.87l4.73-.31c-1.24-4.58-1.15-8.88-1.66-11.09"/><path class="cls-13" d="M176.27,97.82a1.55,1.55,0,1,1-3-.13,1.55,1.55,0,1,1,3,.13Z"/><path class="cls-13" d="M197.46,97.06a1.55,1.55,0,1,1-1.57-1.85A1.73,1.73,0,0,1,197.46,97.06Z"/><path class="cls-14" d="M196.72,96.05a.49.49,0,0,1-.41.55.49.49,0,0,1-.44-.52.44.44,0,1,1,.85,0Z"/><path class="cls-12" d="M168.88,94.44C171.36,91.69,174,91,177,92.23"/><path class="cls-12" d="M193.47,91.12a5,5,0,0,1,6.62,1.12"/><path class="cls-12" d="M190.91,112.4a9.75,9.75,0,0,1-9.6,0"/><path class="cls-14" d="M175.93,96.91a.49.49,0,0,1-.41.55.55.55,0,0,1,0-1.07A.47.47,0,0,1,175.93,96.91Z"/><ellipse class="cls-10" cx="207.89" cy="101.05" rx="5.44" ry="6.44"/><ellipse class="cls-10" cx="161.44" cy="101.05" rx="5.44" ry="6.44"/><path class="cls-6" d="M167.27,68.88a5.55,5.55,0,0,0,1.65,4.36c3.2,3.77,3.17,5.36,8.09,4.82,2.92-.32,7.13-3,13-1.18,5.62,1.77,6.81,5.62,9.77,10.06,3.69,5.54,10.06,9.47,12.13,9.47,2.88,0-7.47-19.46-8.63-21.67a32.79,32.79,0,0,0-6.85-8.56c-5.19-4.74-11.52-6.53-18-3.22"/><path class="cls-15" d="M200.21,152.43C195.64,159.24,189,164.65,182,169a2.35,2.35,0,0,1-1.62.52,2.07,2.07,0,0,1-1.15-1,162.5,162.5,0,0,1-11.94-17.87A51.56,51.56,0,0,0,200.21,152.43Z"/><path class="cls-10" d="M110,152.08l-4.49-8.61c-1.22-2.33-2.32-5.92-4.3-7.66a38.82,38.82,0,0,0-6.08-4.52,21.51,21.51,0,0,0-3.36-1.59c-.81-.3-2.42-1.06-3.31-.88-1.41.28,0,1.36.54,1.67l8.75,5.08c-3.12.93-6.46-.27-9.37-1.73a20.49,20.49,0,0,1-5.8-3.93A3.89,3.89,0,0,0,81,128.65a.64.64,0,0,0-.51,0,.72.72,0,0,0-.27.6c-.29,3,2.25,4.77,4.57,6.22a18.85,18.85,0,0,0,3.93,1.86c1,.36,3,1.16,4.1.9-3.32.81-6.8-.35-9.83-1.68a22.71,22.71,0,0,1-7.33-5.08c-.2-.22-.44-.46-.74-.42a.61.61,0,0,0-.48.45,1.51,1.51,0,0,0,0,.7c.47,3.48,3.63,4.59,6.55,5.69a42.7,42.7,0,0,0,10.39,2.5c-3.29.77-6.68.07-10-.48a12.31,12.31,0,0,1-4.06-1.22c-1.35-.73-2.57-1.68-3.9-2.44a.81.81,0,0,0-.57-.15.67.67,0,0,0-.31.24,1.73,1.73,0,0,0-.23,1.37c.47,2.14,3.38,3.32,5.23,3.93,3.84,1.28,7.69,1.51,11.63,2.19-2.52-.44-5.19.23-7.75,0a22.37,22.37,0,0,1-4.29-.8c-.57-.17-3.38-1.61-3.73-1a.85.85,0,0,0,0,.73c.81,2.35,3.06,2.54,5.06,3.28,2.69,1,5.65.71,8.44,1.25a6.27,6.27,0,0,1,2.77,1.13,6.82,6.82,0,0,1,1.54,2,46.74,46.74,0,0,1,2.45,5.45,61.41,61.41,0,0,0,7.91-.18"/><path class="cls-1" d="M163.19,143.06s-6,2.05-8.78,6.34c-5.73,8.92-21.87,22.48-21.87,22.48L110,146.28l-18.83,7.09s7.3,36,14.36,45.54c21.06,28.28,46.74,3.9,46.74,3.9l-.94,42.85,89.1,4c-1.33-19-5.78-68.73-14.53-91.59-8.7-12.74-23.27-16.55-23.27-16.55-1.26,2.2-12,23.67-16.1,24.61S163.92,144.77,163.19,143.06Z"/><g class="cls-16"><path class="cls-4" d="M173.08,136.05s1.58,9.74,10.06,9.74,12.26-9.11,12.26-9.11l9.71,3.57s-14.21,32.43-19.12,32c-3-.28-27.8-28.87-27.8-28.87Z"/></g><path class="cls-10" d="M250.77,81c1.33-7-2.52-13.56-5.36-19.6a4.16,4.16,0,0,1-.58-2.25c3.44.2,6.08,5.12,7.06,8.19.19,0,.3-.21.33-.4a17.57,17.57,0,0,0-1-9c-.51-1.47-1.12-2.9-1.72-4.33-.43-1-1.54-3-1.09-4.09.12-.29.43-.54.71-.41,1.63.76,2.89,4.08,3.56,5.65a61.21,61.21,0,0,1,2.75,8.91A33.34,33.34,0,0,0,252.81,50a13.67,13.67,0,0,1-1.35-4.7c0-.4.15-.91.52-.89a.79.79,0,0,1,.41.22c2.25,2,3.45,4.94,4.44,7.82a81.6,81.6,0,0,1,2.72,10.85,13.94,13.94,0,0,0,.13-7.82c-.6-2.71-2-5.34-2.88-8a1.2,1.2,0,0,1-.06-.81.65.65,0,0,1,.63-.35,1.54,1.54,0,0,1,.7.29A5.69,5.69,0,0,1,260,49c1.78,4,3.63,8.15,4.25,12.47a12.59,12.59,0,0,0,.35-4.59c-.09-1.75-.25-3.5-.48-5.24-.07-.57-.47-1.37-.29-1.93.41-1.31,1.24-.08,1.63.63a22.48,22.48,0,0,1,2.27,8.41c.35,3.31.36,6.65,1,9.93.48,2.53,1.31,5,1.92,7.49a43.16,43.16,0,0,1,1.13,7.23c.14,1.91,0,3.79.27,5.7a11.08,11.08,0,0,1-3.23,9.62"/><path class="cls-1" d="M242.91,164.08c-4.77,4.47-22.59,15.77-24.95,17.78-3.91,3.31-9.57-25.7-13.92-28.59-1.62-1.08.71-8.48,3.05-11.33,1.43-1.75,10-5.79,15.07-9.31,2.56-1.76,14.2-10.29,16.22-12.65a14.93,14.93,0,0,0,2.39-4.47,104.82,104.82,0,0,0,7-35.78c6.55-1.68,16.68-4,23.49-3.71,5.69,14.59,4.07,32.51,1.25,47.92-1.37,7.5-3.28,16.61-9.56,21.56C257.32,150,248.1,159.22,242.91,164.08Z"/><path class="cls-17" d="M30.06,122.4a8.9,8.9,0,0,0,7.64,0l-6.39-3.79"/><polyline class="cls-17" points="33.53 116.16 37.7 122.4 36.76 115.49"/><path class="cls-17" d="M39.77,114.48c1.88,4.7-2.07,7.92-2.07,7.92l3.49,4.69"/><path class="cls-17" d="M207.26,24.89a9,9,0,0,0,7.64,0l-6.39-3.8"/><polyline class="cls-17" points="210.74 18.64 214.9 24.89 213.96 17.98"/><path class="cls-17" d="M217,17c1.89,4.7-2.07,7.93-2.07,7.93l3.49,4.69"/><path class="cls-17" d="M295,182.2a8.92,8.92,0,0,0-.76-7.61l-3.14,6.74"/><polyline class="cls-17" points="288.44 179.36 294.24 174.59 287.46 176.21"/><path class="cls-17" d="M286.15,173.32c4.5-2.34,8.09,1.27,8.09,1.27l4.33-3.93"/><path class="cls-17" d="M248.66,213.29a8.93,8.93,0,0,0,3.4,6.84l.55-7.41"/><polyline class="cls-17" points="255.8 213.62 252.06 220.13 257.82 216.22"/><path class="cls-17" d="M260.07,218.46c-3.37,3.78-8,1.67-8,1.67l-2.65,5.21"/><path class="cls-17" d="M69.93,177.68a8.94,8.94,0,0,0,.27,7.63l3.57-6.52"/><polyline class="cls-17" points="76.3 180.93 70.2 185.31 77.07 184.13"/><path class="cls-17" d="M78.2,187.1c-4.63,2.05-8-1.79-8-1.79L65.64,189"/><path class="cls-17" d="M401.72,240.31a8.93,8.93,0,0,0,7.51-1.41l-7-2.55"/><polyline class="cls-17" points="403.99 233.53 409.23 238.91 407.04 232.29"/><path class="cls-17" d="M409.81,230.74c2.72,4.27-.58,8.16-.58,8.16l4.3,4"/><path class="cls-17" d="M15.73,181.68a8.92,8.92,0,0,0,5.55,5.24l-2-7.15"/><polyline class="cls-17" points="22.55 179.53 21.28 186.93 25.35 181.26"/><path class="cls-17" d="M28.23,182.59c-1.86,4.71-6.95,4.33-6.95,4.33l-.69,5.81"/><path class="cls-17" d="M400.51,62.47a8.94,8.94,0,0,0,6.28,4.36l-3.09-6.77"/><polyline class="cls-17" points="406.93 59.32 406.79 66.83 409.96 60.62"/><path class="cls-17" d="M413,61.5c-1.14,4.94-6.22,5.33-6.22,5.33l.18,5.84"/><path class="cls-18" d="M324.15,237.71a7,7,0,0,0,6-.67l-5.34-2.41"/><polyline class="cls-18" points="326.32 232.51 330.13 237.04 328.79 231.72"/><path class="cls-18" d="M331.05,230.66a5.6,5.6,0,0,1-.92,6.38l3.14,3.37"/><path class="cls-17" d="M398.1,20.69a8.9,8.9,0,0,0,7.64,0l-6.4-3.79"/><polyline class="cls-17" points="401.57 14.45 405.74 20.69 404.8 13.79"/><path class="cls-17" d="M407.8,12.77c1.89,4.7-2.06,7.92-2.06,7.92l3.49,4.69"/><path class="cls-17" d="M129.67,224.11a9,9,0,0,0,7.64,0l-6.39-3.8"/><polyline class="cls-17" points="133.15 217.86 137.31 224.11 136.37 217.2"/><path class="cls-17" d="M139.38,216.19c1.88,4.7-2.07,7.92-2.07,7.92l3.49,4.69"/><path class="cls-17" d="M45.79,15.45a9,9,0,0,0,7.64,0L47,11.66"/><polyline class="cls-17" points="49.26 9.21 53.43 15.45 52.49 8.54"/><path class="cls-17" d="M55.49,7.53c1.89,4.7-2.06,7.92-2.06,7.92l3.49,4.69"/><path class="cls-17" d="M103.23,94.85a8.93,8.93,0,0,0-.52,7.63l4.22-6.12"/><polyline class="cls-17" points="109.22 98.75 102.71 102.48 109.67 102.01"/><path class="cls-17" d="M110.48,105.08c-4.82,1.56-7.77-2.6-7.77-2.6l-4.92,3.16"/><path class="cls-17" d="M291.16,40.88a9,9,0,0,0-.76-7.61L287.26,40"/><polyline class="cls-17" points="284.6 38.04 290.4 33.27 283.62 34.89"/><path class="cls-17" d="M282.31,32c4.49-2.34,8.09,1.27,8.09,1.27l4.32-3.93"/><path class="cls-17" d="M67.63,232.67a8.94,8.94,0,0,0,5.72,5.07l-2.26-7.08"/><polyline class="cls-17" points="74.38 230.31 73.35 237.74 77.23 231.95"/><path class="cls-17" d="M80.16,233.18c-1.71,4.77-6.81,4.56-6.81,4.56l-.5,5.83"/><path class="cls-17" d="M417.21,171.13a8.92,8.92,0,0,0-.87,7.59l4.5-5.92"/><polyline class="cls-17" points="423.02 175.3 416.33 178.72 423.31 178.58"/><path class="cls-17" d="M424,181.68c-4.89,1.34-7.63-3-7.63-3l-5.07,2.93"/><text class="cls-19" transform="translate(306.22 66.92) rotate(-4.39)">H<tspan class="cls-20" x="13.42" y="0">O</tspan><tspan class="cls-21" x="25.58" y="0">L</tspan><tspan x="36.43" y="0">A</tspan><tspan class="cls-22"><tspan x="-22.81" y="27.23">S</tspan><tspan class="cls-23" x="-11.12" y="27.23">O</tspan><tspan class="cls-24" x="0.66" y="27.23">Y </tspan><tspan class="cls-25" x="23.25" y="27.23">R</tspan><tspan class="cls-26" x="37.08" y="27.23">I</tspan><tspan class="cls-27" x="44.84" y="27.23">T</tspan><tspan class="cls-24" x="54.61" y="27.23">A,</tspan></tspan><tspan class="cls-28"><tspan x="-27.76" y="54.46">H</tspan><tspan class="cls-29" x="-14.12" y="54.46">A</tspan><tspan class="cls-24" x="-2.39" y="54.46">B</tspan><tspan class="cls-30" x="11.54" y="54.46">L</tspan><tspan class="cls-31" x="19.47" y="54.46">E</tspan><tspan class="cls-24" x="31.74" y="54.46">M</tspan><tspan class="cls-32" x="52.32" y="54.46">O</tspan><tspan class="cls-24" x="64.53" y="54.46">S</tspan></tspan><tspan x="-49.87" y="81.68">P</tspan><tspan class="cls-33" x="-35.82" y="81.68">O</tspan><tspan class="cls-34" x="-23.77" y="81.68">R W</tspan><tspan class="cls-28" x="17.44" y="81.68">H</tspan><tspan class="cls-35" x="31.08" y="81.68">A</tspan><tspan class="cls-36" x="41.3" y="81.68">T</tspan><tspan class="cls-37" x="51.07" y="81.68">A</tspan><tspan class="cls-38" x="63.32" y="81.68">P</tspan><tspan x="77.05" y="81.68">P </tspan></text><path class="cls-39" d="M319.88,194.55l2.73-10.19a18.85,18.85,0,1,1,7.51,7.45ZM330.63,188l.64.38a15.32,15.32,0,1,0-5.23-5.19l.39.65-1.52,5.69Z"/><path class="cls-40" d="M346.06,177.89a3.17,3.17,0,0,0-2.69-.61c-.7.29-1.15,1.39-1.6,1.94a.67.67,0,0,1-.87.19,12.18,12.18,0,0,1-6.09-5.21.75.75,0,0,1,.09-1,4.13,4.13,0,0,0,1.11-1.8,4,4,0,0,0-.49-2.13,5.08,5.08,0,0,0-1.57-2.36,2.16,2.16,0,0,0-2.34.35,5,5,0,0,0-1.49,4.94,9.51,9.51,0,0,0,1.14,2.64,19.45,19.45,0,0,0,1.19,1.81,18.55,18.55,0,0,0,5.18,4.81,16,16,0,0,0,3.23,1.54,7.14,7.14,0,0,0,3.76.59A4.57,4.57,0,0,0,348,181a2.24,2.24,0,0,0,.15-1.3C348,178.85,346.78,178.32,346.06,177.89Z"/></g></g></g></svg>