<svg xmlns="http://www.w3.org/2000/svg" viewBox="0 0 109.54 175.78"><defs><style>.cls-1{fill:#fffaec;}</style></defs><g id="Capa_2" data-name="Capa 2"><g id="Layer_1" data-name="Layer 1"><path class="cls-1" d="M84.73,88.42c3.3-3.77,16.2-17.57,20.37-31.54,6-20.05,6.23-55.23-1.17-56.74C92.65-2.16,77.15,25,59.65,52,48.43,69.33,37.59,80.24,26.39,93.38c-6.86,7.78-5.2,23-5.82,27-.08.54-1,.35-1.18-.24a115.59,115.59,0,0,1-3.23-12.33.73.73,0,0,0-1.3-.29A87.37,87.37,0,0,0,8,118C0,133.16-1.92,157.6,1.92,169,36.27,133.81,69.75,84.66,89.39,38.63c.37-.87,1.59-.28,1.31.62C77.11,83.42,43.07,138.4,10.29,175.76c11.9.55,38.62-11.09,73.6-65.28A134.24,134.24,0,0,0,96.15,85.67a.73.73,0,0,0-1-.91c-4.1,2.15-7.53,3.67-9.67,4.56A.6.6,0,0,1,84.73,88.42Z"/></g></g></svg>