<svg xmlns="http://www.w3.org/2000/svg" viewBox="0 0 213.07 56.1"><defs><style>.cls-1{fill:#7391c8;}</style></defs><g id="Capa_2" data-name="Capa 2"><g id="Layer_1" data-name="Layer 1"><path class="cls-1" d="M36.84,14.11c0-5.85,4.71-10.22,10.84-10.22a10.42,10.42,0,0,1,7.43,2.94,1.25,1.25,0,0,1,0,2l-1.54,1.31a1.39,1.39,0,0,1-2,0,6,6,0,0,0-3.88-1.43,5.29,5.29,0,0,0-5.41,5.43,5.3,5.3,0,0,0,5.41,5.44,6,6,0,0,0,3.88-1.43,1.38,1.38,0,0,1,2,0l1.54,1.31a1.25,1.25,0,0,1,0,2,10.46,10.46,0,0,1-7.49,2.94C41.55,24.34,36.84,20,36.84,14.11Z"/><path class="cls-1" d="M58,22.58V4.19c0-.88.48-1.25,1.39-1.4l2.46-.48c.91-.19,1.43.48,1.43,1.39V22.58a1.28,1.28,0,0,1-1.4,1.4H59.42A1.26,1.26,0,0,1,58,22.58Z"/><path class="cls-1" d="M65.1,5c-.36-.61-.18-1.09.52-1.49L70.93.39C71.56,0,72,.18,72.26.67l1.07,2A.88.88,0,0,1,72.87,4l-5.8,2.3c-.63.25-1.15.19-1.39-.24Zm1.76,17.6V10.05a1.27,1.27,0,0,1,1.4-1.4h2.49a1.28,1.28,0,0,1,1.39,1.4V22.58A1.28,1.28,0,0,1,70.75,24H68.26A1.27,1.27,0,0,1,66.86,22.58Z"/><path class="cls-1" d="M91.05,15v7.55A1.28,1.28,0,0,1,89.66,24H87.17a1.28,1.28,0,0,1-1.4-1.4V15.42a2.32,2.32,0,0,0-2.4-2.55,2.35,2.35,0,0,0-2.46,2.55v7.16A1.25,1.25,0,0,1,79.55,24H77a1.26,1.26,0,0,1-1.37-1.4V10.05A1.26,1.26,0,0,1,77,8.65h1.61A1.25,1.25,0,0,1,80,10.05v.79a5.5,5.5,0,0,1,4.74-2.43C88.44,8.41,91.05,11,91.05,15Z"/><path class="cls-1" d="M93.9,3.16a3.16,3.16,0,1,1,3.16,3.15A3.16,3.16,0,0,1,93.9,3.16Zm.52,19.42V10.05a1.27,1.27,0,0,1,1.4-1.4h2.49a1.28,1.28,0,0,1,1.39,1.4V22.58A1.28,1.28,0,0,1,98.31,24H95.82A1.27,1.27,0,0,1,94.42,22.58Z"/><path class="cls-1" d="M102.34,16.39c0-4.61,3.52-8,8.29-8a8.29,8.29,0,0,1,6,2.37,1,1,0,0,1,0,1.57L115,14c-.43.4-.88.58-1.58-.06a3.74,3.74,0,0,0-2.58-1,3.29,3.29,0,0,0-3.31,3.49,3.3,3.3,0,0,0,3.31,3.52,3.77,3.77,0,0,0,2.58-1c.7-.64,1.15-.46,1.58-.06l1.61,1.61a1,1,0,0,1,0,1.58,8.32,8.32,0,0,1-6,2.36C105.86,24.37,102.34,21,102.34,16.39Z"/><path class="cls-1" d="M133.21,14.9v7.68a1.25,1.25,0,0,1-1.4,1.4h-1.24a1.26,1.26,0,0,1-1.37-1.4v-.12a7.19,7.19,0,0,1-4.85,1.91c-3.61,0-6-1.94-6-4.82,0-3.13,2.58-5.19,6.52-5.19a11.15,11.15,0,0,1,3.46.63v-.54c0-1.43-1-2.28-2.76-2.28a6.88,6.88,0,0,0-3.4.88,1.14,1.14,0,0,1-1.76-.54l-.33-.7c-.52-1-.28-1.52.36-1.91A11,11,0,0,1,126,8.41C129.63,8.41,133.21,10,133.21,14.9Zm-4.73,4.37V18a6.85,6.85,0,0,0-2.74-.67c-1.48,0-2.45.79-2.45,1.91s.94,1.86,2.39,1.86C127.32,21.13,128.48,20.09,128.48,19.27Z"/><path class="cls-1" d="M167.45,41.25v7.68a1.26,1.26,0,0,1-1.4,1.4h-1.24a1.26,1.26,0,0,1-1.37-1.4v-.12a7.19,7.19,0,0,1-4.85,1.91c-3.62,0-6-1.94-6-4.82,0-3.13,2.58-5.19,6.52-5.19a11.15,11.15,0,0,1,3.46.63V40.8c0-1.43-1-2.28-2.76-2.28a6.88,6.88,0,0,0-3.4.88,1.14,1.14,0,0,1-1.76-.54l-.33-.7c-.52-1-.28-1.52.36-1.91a10.94,10.94,0,0,1,5.49-1.49C163.87,34.76,167.45,36.37,167.45,41.25Zm-4.74,4.37V44.38a6.8,6.8,0,0,0-2.73-.67c-1.49,0-2.46.79-2.46,1.91s.94,1.86,2.4,1.86C161.56,47.48,162.71,46.44,162.71,45.62Z"/><path class="cls-1" d="M37.9,48.9V32a1.3,1.3,0,0,1,1.43-1.43h7.53c5.07,0,7.8,2.58,7.8,6.59s-2.67,6.55-7.8,6.55H43.25V48.9a1.3,1.3,0,0,1-1.43,1.43H39.33A1.3,1.3,0,0,1,37.9,48.9Zm8.9-9.22a2.37,2.37,0,1,0,0-4.74H43.25v4.74Z"/><path class="cls-1" d="M68.44,36.4l-.58,2.27c-.24.85-.76,1-1.27.82a5.66,5.66,0,0,0-1.58-.3c-1.79,0-2.76,1.18-2.76,3v6.77a1.26,1.26,0,0,1-1.37,1.4H58.36A1.25,1.25,0,0,1,57,48.93V36.4A1.25,1.25,0,0,1,58.36,35H60a1.26,1.26,0,0,1,1.37,1.4v.73a5.08,5.08,0,0,1,4.15-2.37,7,7,0,0,1,2.19.33C68.2,35.27,68.68,35.52,68.44,36.4Z"/><path class="cls-1" d="M68.92,42.74c0-4.58,3.56-8,8.47-8s8.47,3.4,8.47,8-3.55,8-8.47,8S68.92,47.32,68.92,42.74Zm11.75,0a3.3,3.3,0,1,0-3.28,3.49A3.28,3.28,0,0,0,80.67,42.74Z"/><path class="cls-1" d="M102.77,36.4,96.06,52c-1.43,3.34-3.73,4.13-5.86,4.13a6,6,0,0,1-2.43-.46c-.45-.21-.94-.54-.73-1.3l.52-1.86c.18-.6.49-.88,1.37-.6a2.66,2.66,0,0,0,1,.15A1.67,1.67,0,0,0,91.63,51L92.54,49,86.68,36.4c-.39-.85.18-1.4,1.06-1.4h2.7c.88,0,1.37.52,1.67,1.4l3,7.71,2.85-7.71a1.71,1.71,0,0,1,1.7-1.4h2.1C102.59,35,103.13,35.55,102.77,36.4Z"/><path class="cls-1" d="M112.54,47a5.56,5.56,0,0,0,3.25-1.09c.55-.43,1-.64,1.58,0l1,1.06a1,1,0,0,1,.06,1.55c-1.37,1.46-4.13,2.24-6.53,2.24-4.85,0-8.4-3.27-8.4-8a7.79,7.79,0,0,1,8.16-8,8,8,0,0,1,5.74,2.15,7.84,7.84,0,0,1,2.21,5.5c0,1.06-.27,1.45-1.39,1.45h-9.66A3.66,3.66,0,0,0,112.54,47Zm-3.91-6h5.91a3.18,3.18,0,0,0-.85-1.76,2.85,2.85,0,0,0-2.12-.85A2.81,2.81,0,0,0,108.63,41Z"/><path class="cls-1" d="M121.31,42.74c0-4.61,3.52-8,8.29-8a8.29,8.29,0,0,1,6,2.37,1,1,0,0,1,0,1.57L134,40.31c-.43.4-.88.58-1.58-.06a3.74,3.74,0,0,0-2.58-1,3.51,3.51,0,0,0,0,7,3.77,3.77,0,0,0,2.58-1c.7-.64,1.15-.46,1.58-.06l1.61,1.61a1,1,0,0,1,0,1.58,8.32,8.32,0,0,1-6,2.36C124.83,50.72,121.31,47.35,121.31,42.74Z"/><path class="cls-1" d="M149.3,49.66a6.87,6.87,0,0,1-3.86,1.06c-3,0-5.95-1.73-5.95-5.88v-6h-1.33a1.27,1.27,0,0,1-1.4-1.4v-1a1.26,1.26,0,0,1,1.4-1.4h1.33V31.48c0-.88.52-1.21,1.4-1.4l2.43-.42c.91-.18,1.39.45,1.39,1.36v4h3a1.27,1.27,0,0,1,1.4,1.4v1a1.28,1.28,0,0,1-1.4,1.4h-3v5.46c0,1.49.76,2,1.7,2a2.49,2.49,0,0,0,1.25-.42c.76-.49,1.12-.12,1.39.45l.85,2C150.24,49,149.69,49.36,149.3,49.66Z"/><path class="cls-1" d="M182.38,36.4l-.58,2.27c-.24.85-.75,1-1.27.82a5.66,5.66,0,0,0-1.58-.3c-1.79,0-2.76,1.18-2.76,3v6.77a1.26,1.26,0,0,1-1.37,1.4H172.3a1.25,1.25,0,0,1-1.36-1.4V36.4A1.25,1.25,0,0,1,172.3,35h1.61a1.26,1.26,0,0,1,1.37,1.4v.73a5.08,5.08,0,0,1,4.16-2.37,6.89,6.89,0,0,1,2.18.33C182.14,35.27,182.62,35.52,182.38,36.4Z"/><path class="cls-1" d="M195.49,49.66a6.83,6.83,0,0,1-3.85,1.06c-3,0-5.95-1.73-5.95-5.88v-6h-1.34a1.26,1.26,0,0,1-1.39-1.4v-1a1.25,1.25,0,0,1,1.39-1.4h1.34V31.48c0-.88.52-1.21,1.4-1.4l2.42-.42c.91-.18,1.4.45,1.4,1.36v4h3a1.26,1.26,0,0,1,1.39,1.4v1a1.28,1.28,0,0,1-1.39,1.4h-3v5.46c0,1.49.76,2,1.7,2a2.42,2.42,0,0,0,1.24-.42c.76-.49,1.13-.12,1.4.45l.85,2C196.43,49,195.89,49.36,195.49,49.66Z"/><path class="cls-1" d="M206,47a5.53,5.53,0,0,0,3.24-1.09c.55-.43,1-.64,1.58,0l1,1.06a1,1,0,0,1,.06,1.55c-1.36,1.46-4.12,2.24-6.52,2.24-4.86,0-8.41-3.27-8.41-8a7.79,7.79,0,0,1,8.17-8,8,8,0,0,1,5.73,2.15,7.81,7.81,0,0,1,2.22,5.5c0,1.06-.27,1.45-1.4,1.45H202C202.26,45.9,204,47,206,47Zm-3.92-6H208a3.24,3.24,0,0,0-.85-1.76,2.88,2.88,0,0,0-2.13-.85A2.82,2.82,0,0,0,202.05,41Z"/><path class="cls-1" d="M21.72,28c.85-1,4.16-4.5,5.23-8.08,1.53-5.14,1.59-14.17-.3-14.55-2.9-.59-6.87,6.37-11.36,13.3-2.87,4.44-5.65,7.23-8.52,10.6-1.76,2-1.34,5.89-1.5,6.91,0,.14-.25.09-.3-.06a29,29,0,0,1-.83-3.16.18.18,0,0,0-.33-.07,21.35,21.35,0,0,0-1.75,2.71C0,39.43-.49,45.7.49,48.62A116.27,116.27,0,0,0,22.92,15.2c.09-.23.41-.07.34.16C19.77,26.68,11,40.78,2.64,50.36c3.05.14,9.9-2.85,18.87-16.74a34.24,34.24,0,0,0,3.14-6.36.19.19,0,0,0-.26-.24c-1.05.55-1.93.94-2.48,1.17A.15.15,0,0,1,21.72,28Z"/></g></g></svg>