<svg xmlns="http://www.w3.org/2000/svg" xmlns:xlink="http://www.w3.org/1999/xlink" viewBox="0 0 162.07 36.61"><defs><style>.cls-1{fill:#fff;}.cls-2{fill:url(#Degradado_sin_nombre_5);}.cls-3{fill:#0084c7;}.cls-4{fill:#0083ca;}.cls-5{fill:#00a2e3;}.cls-6{fill:url(#Degradado_sin_nombre_4);}.cls-7{fill:#00a3e3;}.cls-8{fill:#00bfe8;}</style><linearGradient id="Degradado_sin_nombre_5" x1="17.38" y1="-4723.02" x2="11.39" y2="-4706.54" gradientTransform="matrix(1, 0, 0, -1, 0, -4704.03)" gradientUnits="userSpaceOnUse"><stop offset="0" stop-color="#00a1e1"/><stop offset="0.39" stop-color="#009fe0"/><stop offset="0.6" stop-color="#009bdd"/><stop offset="0.76" stop-color="#0093cf"/><stop offset="0.9" stop-color="#0084ba"/><stop offset="0.94" stop-color="#007fb1"/></linearGradient><linearGradient id="Degradado_sin_nombre_4" x1="18.27" y1="-4723.25" x2="24.32" y2="-4739.9" gradientTransform="matrix(1, 0, 0, -1, 0, -4704.03)" gradientUnits="userSpaceOnUse"><stop offset="0.03" stop-color="#00bfe4"/><stop offset="0.22" stop-color="#00bde4"/><stop offset="0.43" stop-color="#00bae2"/><stop offset="0.66" stop-color="#00a6d3"/><stop offset="0.9" stop-color="#008bbd"/><stop offset="1" stop-color="#007eb2"/></linearGradient></defs><g id="Capa_2" data-name="Capa 2"><g id="Layer_1" data-name="Layer 1"><polygon class="cls-1" points="49.07 32.59 49.07 34.07 38.21 34.07 38.21 16.48 48.56 16.48 48.56 17.96 39.76 17.96 39.76 24.24 47.45 24.24 47.45 25.57 39.76 25.57 39.76 32.66 49.07 32.59"/><path class="cls-1" d="M58,27H54v7.1H52.4V16.48H58c4,0,5.69,1.55,5.69,5.25S62.08,27,58,27Zm0-9.09H54v7.76H58c2.73,0,4.13-1,4.13-3.91S60.82,17.88,58,17.88Z"/><path class="cls-1" d="M70.8,34.44a9.36,9.36,0,0,1-5-1.41l.29-1.47a8.36,8.36,0,0,0,4.73,1.33c2.81,0,4.21-1.33,4.21-3.63,0-4.73-9-2.66-9-8.42,0-2.66,1.7-4.66,5.47-4.66a10.74,10.74,0,0,1,4.5,1l-.29,1.41a10.37,10.37,0,0,0-4.14-.89c-2.88,0-4.07,1.48-4.07,3.18,0,4.51,9.09,2.36,9.09,8.42C76.49,32.44,74.57,34.44,70.8,34.44Z"/><path class="cls-1" d="M82,33l.45-2.81a10.51,10.51,0,0,0,2.29,1,9.12,9.12,0,0,0,2.44.37,3.72,3.72,0,0,0,2.36-.6,2.13,2.13,0,0,0,.74-1.77,1.56,1.56,0,0,0-.59-1.33A6.3,6.3,0,0,0,88.17,27l-2-.74a8.7,8.7,0,0,1-2-1A4.94,4.94,0,0,1,82.7,23.8a4.13,4.13,0,0,1-.59-2.37,5.4,5.4,0,0,1,.37-2,4.21,4.21,0,0,1,1.1-1.63,5.47,5.47,0,0,1,1.85-1.11,8,8,0,0,1,2.66-.37,13.27,13.27,0,0,1,2.52.22,10.07,10.07,0,0,1,2.21.67L92.38,20l-2.07-.59-2.07-.22-1.48.15a2.7,2.7,0,0,0-1,.44,1.57,1.57,0,0,0-.52.67,2,2,0,0,0-.14.74,1.43,1.43,0,0,0,.59,1.25,6.54,6.54,0,0,0,1.55.81l2,.74a9,9,0,0,1,2,1,5.22,5.22,0,0,1,1.48,1.48,4.27,4.27,0,0,1,.59,2.37,5.11,5.11,0,0,1-1.63,4,6.6,6.6,0,0,1-4.58,1.48,11.12,11.12,0,0,1-2.81-.37A11,11,0,0,1,82,33Z"/><path class="cls-1" d="M131.25,16.63h2.88V20.1h3.25v2.22h-3.25v7.76a1.62,1.62,0,0,0,.45,1.33,2,2,0,0,0,1.33.37h.59l.51-.15.23,2.14-1,.22H135a3.74,3.74,0,0,1-2.88-1,4.25,4.25,0,0,1-1-3Z"/><path class="cls-1" d="M109.3,33.92V20.1l2.07-.15.44,1.33a5.5,5.5,0,0,1,1.78-1.11,6,6,0,0,1,2.14-.36,4.63,4.63,0,0,1,3.47,1.33A5.22,5.22,0,0,1,120.46,25v8.94h-3V25a2.34,2.34,0,0,0-.66-1.92,2.87,2.87,0,0,0-2-.59,3.82,3.82,0,0,0-1.55.36,2.85,2.85,0,0,0-1.18,1V33.92Z"/><path class="cls-1" d="M124,16.78q0-1.41,1.77-1.41t1.77,1.41c0,.93-.59,1.4-1.77,1.4a2.29,2.29,0,0,1-1.33-.3A1.25,1.25,0,0,1,124,16.78Zm.22,17.14V20.1l3-.15v14Z"/><path class="cls-1" d="M152.38,23.94a3.77,3.77,0,0,1,1.26-3,5.53,5.53,0,0,1,3.84-1.11,9.6,9.6,0,0,1,3.85.81l-.22,2.44a8.64,8.64,0,0,0-1.85-.52l-1.78-.14a3,3,0,0,0-1.62.36,1.25,1.25,0,0,0-.59,1.11,1.11,1.11,0,0,0,.51,1l1.26.6,1.63.51a7.41,7.41,0,0,1,1.62.74,4.06,4.06,0,0,1,1.26,1.18,3.63,3.63,0,0,1,.52,1.93,5.77,5.77,0,0,1-.3,1.84,3.33,3.33,0,0,1-.89,1.41,4.19,4.19,0,0,1-1.55.88,7.36,7.36,0,0,1-2.29.3,10.38,10.38,0,0,1-2.36-.22,6.6,6.6,0,0,1-2-.82l.37-2.43a6.38,6.38,0,0,0,1.92.81,8.54,8.54,0,0,0,2.07.29,2.72,2.72,0,0,0,1.85-.51,1.65,1.65,0,0,0,.59-1.26,1.24,1.24,0,0,0-.52-1,4.57,4.57,0,0,0-1.25-.67l-1.63-.52a7.45,7.45,0,0,1-1.63-.73A3.84,3.84,0,0,1,153.2,26,3.5,3.5,0,0,1,152.38,23.94Z"/><path class="cls-1" d="M106.12,22.76a3.62,3.62,0,0,0-2.51-2.66,8,8,0,0,0-2.44-.29,11.26,11.26,0,0,0-4.65.88l.29,2.44,1.85-.59,2-.22a3.51,3.51,0,0,1,2.21.51,2.33,2.33,0,0,1,.67,1.85v5.1a1.39,1.39,0,0,1-.22.74,2.25,2.25,0,0,1-.6.59l-.88.45-1,.14a2.79,2.79,0,0,1-1.7-.51,2,2,0,0,1-.66-1.7,2,2,0,0,1,.66-1.63,3.16,3.16,0,0,1,2.07-.52l1.26.15h.15V25.57h-.37l-1.55-.15a5.39,5.39,0,0,0-3.77,1.18,4,4,0,0,0-1.26,3.11,4,4,0,0,0,3.42,4.48,4.22,4.22,0,0,0,.87,0,5.32,5.32,0,0,0,2.29-.45,4.32,4.32,0,0,0,1.62-1.25h.08L104.2,34h2.22V25.2A9.17,9.17,0,0,0,106.12,22.76Z"/><path class="cls-1" d="M149.65,22.76a3.62,3.62,0,0,0-2.51-2.66,8.08,8.08,0,0,0-2.44-.29,11.3,11.3,0,0,0-4.66.88l.3,2.44,1.85-.59,2-.22a3.52,3.52,0,0,1,2.22.51,2.29,2.29,0,0,1,.66,1.85v5.1a1.31,1.31,0,0,1-.22.74,2.36,2.36,0,0,1-.59.59l-.89.45-1,.14a2.77,2.77,0,0,1-1.7-.51,2,2,0,0,1-.66-1.7,2,2,0,0,1,.66-1.63,3.16,3.16,0,0,1,2.07-.52l1.26.15h.14V25.57h-.37l-1.55-.15a5.41,5.41,0,0,0-3.77,1.18,4,4,0,0,0-1.25,3.11,4,4,0,0,0,3.42,4.48,4.15,4.15,0,0,0,.86,0,5.3,5.3,0,0,0,2.29-.45,4.27,4.27,0,0,0,1.63-1.25h.07l.3,1.47H150V25.2A9.17,9.17,0,0,0,149.65,22.76Z"/><path class="cls-2" d="M23.73,5C23.43,1.7,21.66,0,19.29,0A7.26,7.26,0,0,0,15.6,1.18a17,17,0,0,0-6.21,7c-.74,1.4-1.18,2.44-1.92,4.06l.59.89c.89,1.26,4.36,7.32,4.36,7.32L6.73,22l11.08-3.25a2.6,2.6,0,0,0,1.26-.66C22.17,14.26,24.24,10,23.73,5Z"/><path class="cls-3" d="M8,13l-.6-.82-.14.3c-.37.74-3.77,10.34-3.77,10.34h.66l2.52-.73,5.61-1.7S8.87,14.26,8,13Z"/><polygon class="cls-4" points="4.51 22.76 6.73 22.1 4.22 22.84 4.51 22.76"/><path class="cls-5" d="M7.25,12.49l.14-.3A34.06,34.06,0,0,0,3.92,7.54C2.52,6.21.67,6.28.15,9.16A5.64,5.64,0,0,0,0,10,29.06,29.06,0,0,0,2.44,22a1.41,1.41,0,0,0,1.78.74H3.55S7,13.23,7.25,12.49Z"/><path class="cls-6" d="M30.53,27.56c-2.22-4.28-6-6.65-10.42-8.2h-.45l-1,.15-6.13,1.85s.22,6.2.22,7.17v1.18c1.55,1,3.25,2,4.58,2.73a16.28,16.28,0,0,0,8.57,2.37C30.53,34.66,32.59,31.63,30.53,27.56Z"/><path class="cls-7" d="M12.79,28.53c0-1-.22-7.17-.22-7.17l-2.81.81L5,23.5,4,24l8.42,5.54.3.15A8.62,8.62,0,0,0,12.79,28.53Z"/><path class="cls-8" d="M4.07,23.94l1-.51c1.55-.45-.3.07-.3.07s-1.25.74-1.1,1.63c1.1,3.4,2.21,6.79,4.65,9.75l.52.52c2,1.77,3.32,1.7,3.77-.89a34.59,34.59,0,0,0,.22-4.88l-.3-.14Z"/></g></g></svg>