<svg xmlns="http://www.w3.org/2000/svg" xmlns:xlink="http://www.w3.org/1999/xlink" viewBox="0 0 153.7 29.92"><defs><style>.cls-1,.cls-3{fill:#fff;}.cls-2{clip-path:url(#clip-path);}.cls-3{fill-rule:evenodd;}.cls-4{fill:#7391c8;}</style><clipPath id="clip-path"><path class="cls-1" d="M24.94,23.28H152.68a1,1,0,0,1,.8.33.91.91,0,0,1,.13.83l-1.12,4a2.17,2.17,0,0,1-2,1.45H22.79a1,1,0,0,1-.81-.33.88.88,0,0,1-.14-.83l1.12-4a2.17,2.17,0,0,1,2-1.45"/></clipPath></defs><g id="Capa_2" data-name="Capa 2"><g id="Layer_1" data-name="Layer 1"><path class="cls-1" d="M24.94,23.28H152.68a1,1,0,0,1,.8.33.91.91,0,0,1,.13.83l-1.12,4a2.17,2.17,0,0,1-2,1.45H22.79a1,1,0,0,1-.81-.33.88.88,0,0,1-.14-.83l1.12-4a2.17,2.17,0,0,1,2-1.45"/><g class="cls-2"><rect class="cls-1" x="21.75" y="23.28" width="131.94" height="6.65"/></g><path class="cls-3" d="M10.12,12.68A2.66,2.66,0,1,1,7.4,15.34a2.69,2.69,0,0,1,2.72-2.66"/><path class="cls-3" d="M8.34,21.45a11.15,11.15,0,0,1-8-5.62A1.17,1.17,0,0,1,0,15.07a1.22,1.22,0,0,1,1.24-1.21,1.36,1.36,0,0,1,1.2.87,8.65,8.65,0,0,0,15.12,0,1.27,1.27,0,0,1,1.05-.57,1.21,1.21,0,0,1,1.23,1.2,1.24,1.24,0,0,1-.27.76,11.21,11.21,0,0,1-5.33,4.66,3.52,3.52,0,0,0-5.9.66"/><path class="cls-3" d="M11.82,4.37A2.7,2.7,0,0,1,14.54,7a2.72,2.72,0,1,1-2.72-2.66"/><path class="cls-3" d="M7.85,12.74A10.31,10.31,0,0,1,3,3.84a14.29,14.29,0,0,1,.46-3A1.25,1.25,0,0,1,4,.19,1.34,1.34,0,0,1,5.81.62,1.43,1.43,0,0,1,5.9,1.74a7.2,7.2,0,0,0-.32,2.1,8.2,8.2,0,0,0,8.28,8.08A8.47,8.47,0,0,0,19.54,9.7a1.28,1.28,0,0,1,.82-.3,1.3,1.3,0,0,1,1.33,1.29,1.35,1.35,0,0,1-.39.94,11.15,11.15,0,0,1-7.43,2.85,3.55,3.55,0,0,0-.44,0,3.46,3.46,0,0,0-3.33-2.45,4.33,4.33,0,0,0-2.25.69"/><path class="cls-3" d="M11.49,20.11a2.66,2.66,0,1,1-2.72,2.66,2.7,2.7,0,0,1,2.72-2.66"/><path class="cls-3" d="M17.6,20.08a8.17,8.17,0,0,1-8.2,7.24,9.57,9.57,0,0,1-3.57-.77,2.66,2.66,0,0,0-.45,0,1.22,1.22,0,0,0-1.25,1.2,1.34,1.34,0,0,0,.9,1.2,11.24,11.24,0,0,0,4.37.92,10.71,10.71,0,0,0,10.68-9.44,1.53,1.53,0,0,1,0-.18,1.24,1.24,0,0,0-2.47-.13"/><path class="cls-1" d="M45.13,21a5.64,5.64,0,0,1-3.56-1.09A3.87,3.87,0,0,1,40,16.66a3.87,3.87,0,0,1,1.84-3.59,10.35,10.35,0,0,1,3.91-1c.34-.08.9-.16,1.69-.26a10.85,10.85,0,0,0,1.44-.23,1.57,1.57,0,0,0,1.32-1.61c0-1.36-1-2-3.07-2s-3.15.8-3.31,2.39H40.57a4.66,4.66,0,0,1,2.24-3.94,8.65,8.65,0,0,1,4.54-1,7.8,7.8,0,0,1,4.08,1,3.71,3.71,0,0,1,1.89,3.37v.46A3.31,3.31,0,0,1,52.06,12a6.81,6.81,0,0,1-2,1.21A13.68,13.68,0,0,1,46,14c-1.79.29-2.7,1.11-2.7,2.47A1.66,1.66,0,0,0,44.39,18a4.38,4.38,0,0,0,2,.4,4.61,4.61,0,0,0,2.39-.63A2.5,2.5,0,0,0,50,15.6V13c1.38-.54,2.48-2.18,3.3-2.89v7.17a1.81,1.81,0,0,0,.15.86.7.7,0,0,0,.63.26h.34a3.33,3.33,0,0,0,.46-.06v2.27a6.2,6.2,0,0,1-2.07.37c-1.47,0-2.32-.6-2.55-1.81A7,7,0,0,1,45.13,21"/><path class="cls-1" d="M55.78,5.74h3.11V7.81H59a5.29,5.29,0,0,1,4.57-2.48q3.2,0,4.17,2.48a5.54,5.54,0,0,1,4.65-2.48c3.32,0,5,1.67,5,5V20.59H74.06V11.92A7.28,7.28,0,0,0,73.66,9a2.33,2.33,0,0,0-2.3-1.09q-3.17,0-3.16,4v8.7H64.92V11.05a3.89,3.89,0,0,0-.57-2.35,2.45,2.45,0,0,0-2-.78,2.94,2.94,0,0,0-2.27,1,4.1,4.1,0,0,0-1,2.84v8.82H55.78Z"/><path class="cls-1" d="M79.24,5.74h3.27V20.59H79.24Zm0-5.66h3.27v3.1H79.24Z"/><path class="cls-1" d="M87,15.82c.18,1.73,1.3,2.59,3.37,2.59q3.39,0,3.3-1.95c0-.75-.56-1.31-1.55-1.67-.21-.08-1.32-.35-3.31-.81a8.54,8.54,0,0,1-3.27-1.26,3.64,3.64,0,0,1-1.5-3.13,3.59,3.59,0,0,1,2.1-3.34,8.44,8.44,0,0,1,4.11-.92,7.46,7.46,0,0,1,4.11,1,4.58,4.58,0,0,1,2.1,3.53H93.05c-.27-1.32-1.28-2-3-2s-2.7.51-2.7,1.52c0,.71.51,1.25,1.52,1.61.31.12,1.41.38,3.31.78a9.59,9.59,0,0,1,3.3,1.27A3.56,3.56,0,0,1,97,16.17,4.09,4.09,0,0,1,94.8,19.9,8.52,8.52,0,0,1,90.32,21a7.76,7.76,0,0,1-4.66-1.27,4.73,4.73,0,0,1-1.92-3.91Z"/><path class="cls-1" d="M103.09,21a5.62,5.62,0,0,1-3.56-1.09A3.85,3.85,0,0,1,98,16.66a3.87,3.87,0,0,1,1.84-3.59,10.28,10.28,0,0,1,3.9-1c.35-.08.91-.16,1.7-.26a10.85,10.85,0,0,0,1.44-.23,1.57,1.57,0,0,0,1.32-1.61c0-1.36-1-2-3.08-2s-3.15.8-3.3,2.39H98.52a4.68,4.68,0,0,1,2.24-3.94,8.7,8.7,0,0,1,4.54-1,7.75,7.75,0,0,1,4.08,1,3.7,3.7,0,0,1,1.9,3.37v.46A3.41,3.41,0,0,1,110,12a6.94,6.94,0,0,1-2,1.21,13.68,13.68,0,0,1-4,.83c-1.8.29-2.7,1.11-2.7,2.47A1.66,1.66,0,0,0,102.34,18a4.46,4.46,0,0,0,2,.4,4.58,4.58,0,0,0,2.38-.63A2.49,2.49,0,0,0,108,15.6V12.73c1.38-.54,2.48-1.94,3.3-2.64v7.23a2,2,0,0,0,.14.86.73.73,0,0,0,.64.26h.34a3.33,3.33,0,0,0,.46-.06v2.27a6.2,6.2,0,0,1-2.07.37c-1.47,0-2.33-.6-2.56-1.81A7,7,0,0,1,103.09,21"/><path class="cls-1" d="M113.74,5.74h3.1V7.92l.06.06a5.13,5.13,0,0,1,4.63-2.65,5.52,5.52,0,0,1,3.85,1.27,5,5,0,0,1,1.41,3.79v10.2h-3.28V11.25q-.12-3.33-2.9-3.33A3.35,3.35,0,0,0,118,9a4.11,4.11,0,0,0-1,2.79v8.76h-3.28Z"/><path class="cls-1" d="M132.87,21a5.64,5.64,0,0,1-3.56-1.09,3.87,3.87,0,0,1-1.55-3.27,3.87,3.87,0,0,1,1.84-3.59,10.35,10.35,0,0,1,3.91-1c.34-.08.91-.16,1.69-.26a10.85,10.85,0,0,0,1.44-.23A1.57,1.57,0,0,0,138,9.93c0-1.36-1-2-3.07-2s-3.16.8-3.31,2.39H128.3a4.69,4.69,0,0,1,2.25-3.94,8.65,8.65,0,0,1,4.54-1,7.78,7.78,0,0,1,4.08,1,3.72,3.72,0,0,1,1.9,3.37v.46A3.39,3.39,0,0,1,139.8,12a6.81,6.81,0,0,1-2,1.21,13.67,13.67,0,0,1-4,.83c-1.8.29-2.7,1.11-2.7,2.47A1.65,1.65,0,0,0,132.13,18a4.41,4.41,0,0,0,2,.4,4.61,4.61,0,0,0,2.39-.63,2.5,2.5,0,0,0,1.29-2.21V12.86c1.38-.54,2.48-2.07,3.31-2.78v7.24a1.83,1.83,0,0,0,.14.86.7.7,0,0,0,.63.26h.34a3.33,3.33,0,0,0,.46-.06v2.27a6.16,6.16,0,0,1-2.07.37c-1.47,0-2.32-.6-2.55-1.81A7,7,0,0,1,132.87,21"/><path class="cls-1" d="M143.53,5.74h3.07V8.61h.06a4.05,4.05,0,0,1,1.58-2.24,4.42,4.42,0,0,1,2.76-1c.18,0,.6,0,1.23.09V8.58a8.39,8.39,0,0,0-1.41-.14A3.6,3.6,0,0,0,148,9.73a5.72,5.72,0,0,0-1.18,3.8v7.06h-3.27Z"/><path class="cls-1" d="M40.78,3.24V.14H30.62a4.44,4.44,0,0,0-2.86.77c-.85.7-1.25,1.92-1.25,3.63v.24h0v15.8h3.62V11.51h9.35V8.59H30.13V3.24Z"/><path class="cls-4" d="M131.74,29.46V23.93h4v1h-2.67v1.17h2.54v1h-2.54v1.32h2.74v1Z"/><path class="cls-4" d="M139.19,24.94v1.28h.64c.58,0,.86-.21.86-.64a.54.54,0,0,0-.22-.49,1.42,1.42,0,0,0-.77-.15Zm-1.38-1h2.42a1.88,1.88,0,0,1,1.39.48,1.6,1.6,0,0,1,.5,1.16,1.65,1.65,0,0,1-.48,1.18,1.79,1.79,0,0,1-1.35.49h-1.1v2.22h-1.38Z"/><path class="cls-4" d="M143.8,27.83a7.5,7.5,0,0,0,1,.54,2.2,2.2,0,0,0,.84.16c.57,0,.86-.17.86-.52s-.26-.44-.78-.65l-.85-.34c-.2-.08-.36-.16-.48-.22a1.5,1.5,0,0,1-.55-.57,1.71,1.71,0,0,1-.17-.8,1.36,1.36,0,0,1,.58-1.16,2.53,2.53,0,0,1,1.54-.43,4.37,4.37,0,0,1,1.88.44v1.08a4.45,4.45,0,0,0-1.76-.5,1.28,1.28,0,0,0-.6.12.4.4,0,0,0-.22.33c0,.21.25.42.73.61a8,8,0,0,1,1.38.6,1.54,1.54,0,0,1,.73,1.32,1.6,1.6,0,0,1-.53,1.21,2.38,2.38,0,0,1-1.67.49A4.38,4.38,0,0,1,143.8,29Z"/></g></g></svg>