<svg xmlns="http://www.w3.org/2000/svg" xmlns:xlink="http://www.w3.org/1999/xlink" viewBox="0 0 194.51 133.74"><defs><style>.cls-1{fill:url(#Degradado_sin_nombre_38);}.cls-2{fill:url(#Degradado_sin_nombre_38-2);}.cls-3{fill:url(#Degradado_sin_nombre_38-3);}</style><linearGradient id="Degradado_sin_nombre_38" x1="74.82" y1="115.22" x2="0" y2="115.22" gradientUnits="userSpaceOnUse"><stop offset="0" stop-color="#f49e8b"/><stop offset="0.19" stop-color="#f7b7a6"/><stop offset="0.5" stop-color="#fbdccc"/><stop offset="0.75" stop-color="#fef2e3"/><stop offset="0.9" stop-color="#fffaec"/></linearGradient><linearGradient id="Degradado_sin_nombre_38-2" x1="194.51" y1="18.52" x2="119.69" y2="18.52" xlink:href="#Degradado_sin_nombre_38"/><linearGradient id="Degradado_sin_nombre_38-3" x1="173.74" y1="67.28" x2="26.87" y2="67.28" xlink:href="#Degradado_sin_nombre_38"/></defs><g id="Capa_2" data-name="Capa 2"><g id="Layer_1" data-name="Layer 1"><path class="cls-1" d="M56.3,96.69H17.17v.06a18.51,18.51,0,0,0,0,36.93v.06H56.3a18.53,18.53,0,0,0,0-37.05Z"/><path class="cls-2" d="M176,0H136.86V.05a18.52,18.52,0,0,0,0,36.94v0H176a18.52,18.52,0,0,0,0-37Z"/><path class="cls-3" d="M155.22,48.76H44v.05a18.52,18.52,0,0,0,0,36.94v0H155.22a18.52,18.52,0,1,0,0-37Z"/></g></g></svg>