<svg xmlns="http://www.w3.org/2000/svg" viewBox="0 0 129.93 201.74"><defs><style>.cls-1{opacity:0.3;}.cls-2{fill:#f49e8b;}</style></defs><g id="Capa_2" data-name="Capa 2"><g id="Layer_1" data-name="Layer 1"><g class="cls-1"><path class="cls-2" d="M26.57,12.6c0,7-5,12.6-12,12.6A11.22,11.22,0,0,1,8.5,23.48v8a2,2,0,0,1-2.15,2.2h-4a2,2,0,0,1-2.16-2.2V2.59A2,2,0,0,1,2.37.38H4.72A2,2,0,0,1,6.87,2.59v.33A11.75,11.75,0,0,1,14.59,0C21.49,0,26.57,5.51,26.57,12.6Zm-8.2,0A5.18,5.18,0,0,0,13.2,7.09c-2.88,0-5.13,2.16-5.13,5.51s2.25,5.51,5.13,5.51A5.18,5.18,0,0,0,18.37,12.6Z"/><path class="cls-2" d="M72.89,2.69,72,6.28c-.39,1.34-1.2,1.63-2,1.29a8.86,8.86,0,0,0-2.5-.48c-2.82,0-4.36,1.87-4.36,4.7V22.47A2,2,0,0,1,61,24.68H57a2,2,0,0,1-2.15-2.21V2.69A2,2,0,0,1,57,.48h2.54a2,2,0,0,1,2.16,2.21V3.84A8,8,0,0,1,68.24.1a10.77,10.77,0,0,1,3.45.53C72.5.91,73.27,1.3,72.89,2.69Z"/><path class="cls-2" d="M95.37,12.6C95.37,5.37,101,0,108.74,0S122.1,5.37,122.1,12.6s-5.6,12.6-13.36,12.6S95.37,19.84,95.37,12.6Zm18.54,0a5.21,5.21,0,1,0-10.4,0,5.21,5.21,0,1,0,10.4,0Z"/><path class="cls-2" d="M25.81,56.17,15.22,80.74C13,86,9.33,87.26,6,87.26a9.55,9.55,0,0,1-3.83-.72C1.42,86.21.65,85.68,1,84.48l.81-2.92c.29-1,.77-1.39,2.16-1a4.26,4.26,0,0,0,1.58.24,2.62,2.62,0,0,0,2.68-1.68L9.66,76.1.41,56.17C-.21,54.83.7,54,2.09,54H6.36c1.38,0,2.15.82,2.63,2.21l4.65,12.17,4.5-12.17c.48-1.39,1.25-2.21,2.68-2.21h3.31C25.52,54,26.38,54.83,25.81,56.17Z"/><path class="cls-2" d="M63.28,72.89a8.75,8.75,0,0,0,5.12-1.73c.87-.67,1.59-1,2.5,0l1.62,1.68a1.53,1.53,0,0,1,.1,2.45c-2.16,2.29-6.51,3.54-10.3,3.54-7.67,0-13.27-5.17-13.27-12.65,0-7.23,5.36-12.55,12.89-12.55A12.63,12.63,0,0,1,71,57a12.32,12.32,0,0,1,3.5,8.67c0,1.68-.43,2.3-2.2,2.3H57.05C57.43,71.16,60.12,72.89,63.28,72.89ZM57.1,63.4h9.34a5.06,5.06,0,0,0-1.34-2.78,4.56,4.56,0,0,0-3.36-1.34A4.45,4.45,0,0,0,57.1,63.4Z"/><path class="cls-2" d="M97.12,66.18c0-7.28,5.56-12.6,13.08-12.6a13.06,13.06,0,0,1,9.49,3.74,1.54,1.54,0,0,1,0,2.49l-2.54,2.54c-.67.62-1.39.91-2.49-.1a5.92,5.92,0,0,0-4.07-1.58,5.19,5.19,0,0,0-5.22,5.51c0,3.16,2.1,5.56,5.22,5.56a6,6,0,0,0,4.07-1.63c1.1-1,1.82-.72,2.49-.1l2.54,2.54a1.54,1.54,0,0,1,0,2.49,13.06,13.06,0,0,1-9.49,3.74C102.68,78.78,97.12,73.46,97.12,66.18Z"/><path class="cls-2" d="M19.79,136.25a10.91,10.91,0,0,1-6.09,1.67c-4.79,0-9.39-2.73-9.39-9.29v-9.49H2.2a2,2,0,0,1-2.2-2.2v-1.63a2,2,0,0,1,2.2-2.21H4.31v-5.55c0-1.39.82-1.92,2.21-2.21l3.83-.67c1.44-.28,2.2.72,2.2,2.16v6.27H17.3a2,2,0,0,1,2.2,2.21v1.63a2,2,0,0,1-2.2,2.2H12.55v8.63c0,2.34,1.2,3.11,2.69,3.11a3.93,3.93,0,0,0,2-.67c1.2-.77,1.77-.19,2.2.72L20.75,134C21.27,135.19,20.41,135.77,19.79,136.25Z"/><path class="cls-2" d="M121.58,115.6l-.91,3.59c-.39,1.34-1.2,1.63-2,1.29a9.07,9.07,0,0,0-2.49-.47c-2.82,0-4.36,1.86-4.36,4.69v10.68a2,2,0,0,1-2.15,2.21h-4a2,2,0,0,1-2.16-2.21V115.6a2,2,0,0,1,2.16-2.21h2.54a2,2,0,0,1,2.16,2.21v1.15a8,8,0,0,1,6.56-3.74,10.77,10.77,0,0,1,3.45.53C121.19,113.83,122,114.21,121.58,115.6Z"/><path class="cls-2" d="M20,191.74a10.85,10.85,0,0,1-6.08,1.68c-4.79,0-9.39-2.74-9.39-9.3v-9.49H2.42a2,2,0,0,1-2.21-2.2V170.8a2,2,0,0,1,2.21-2.2H4.53V163c0-1.39.81-1.92,2.2-2.2l3.83-.67c1.44-.29,2.21.71,2.21,2.15v6.28h4.74a2,2,0,0,1,2.2,2.2v1.63a2,2,0,0,1-2.2,2.2H12.77v8.63c0,2.35,1.2,3.11,2.68,3.11a3.77,3.77,0,0,0,2-.67c1.2-.76,1.78-.19,2.21.72L21,189.53C21.49,190.68,20.62,191.26,20,191.74Z"/><path class="cls-2" d="M62.69,187.52a8.77,8.77,0,0,0,5.13-1.72c.86-.67,1.58-1,2.49-.05l1.63,1.68a1.52,1.52,0,0,1,.09,2.44c-2.15,2.3-6.51,3.55-10.3,3.55-7.66,0-13.27-5.18-13.27-12.65,0-7.24,5.37-12.56,12.89-12.56a12.64,12.64,0,0,1,9.05,3.41,12.28,12.28,0,0,1,3.5,8.67c0,1.68-.43,2.3-2.2,2.3H56.46C56.85,185.8,59.53,187.52,62.69,187.52ZM56.51,178h9.34a5.06,5.06,0,0,0-1.34-2.78,4.54,4.54,0,0,0-3.35-1.34A4.46,4.46,0,0,0,56.51,178Z"/><path class="cls-2" d="M122.08,174.08c1-1.19,5.13-5.56,6.45-10,1.89-6.34,2-17.48-.37-18-3.57-.73-8.48,7.87-14,16.42-3.55,5.48-7,8.93-10.53,13.09-2.17,2.47-1.64,7.27-1.84,8.54,0,.17-.31.11-.37-.08a35.27,35.27,0,0,1-1-3.9.24.24,0,0,0-.42-.1,28.11,28.11,0,0,0-2.16,3.35c-2.56,4.79-3.15,12.52-1.93,16.13a143.71,143.71,0,0,0,27.69-41.27c.11-.27.5-.08.41.2-4.3,14-15.08,31.38-25.45,43.21,3.76.17,12.22-3.51,23.29-20.66a42.6,42.6,0,0,0,3.88-7.86.22.22,0,0,0-.32-.28c-1.3.67-2.38,1.16-3.06,1.44C122.13,174.44,122,174.23,122.08,174.08Z"/><path class="cls-2" d="M74.32,122.78v12.69A2.07,2.07,0,0,1,72,137.78H70a2.07,2.07,0,0,1-2.26-2.31v-.2a12,12,0,0,1-8,3.16c-6,0-9.88-3.21-9.88-8,0-5.16,4.26-8.57,10.79-8.57a18.32,18.32,0,0,1,5.71,1.05V122c0-2.36-1.65-3.77-4.56-3.77a11.29,11.29,0,0,0-5.62,1.46,1.9,1.9,0,0,1-2.91-.9l-.55-1.16c-.85-1.6-.45-2.51.6-3.16A18.29,18.29,0,0,1,62.33,112C68.4,112,74.32,114.7,74.32,122.78ZM66.5,130v-2A11.1,11.1,0,0,0,62,126.84c-2.46,0-4.06,1.31-4.06,3.16s1.55,3.06,4,3.06C64.59,133.06,66.5,131.36,66.5,130Z"/></g></g></g></svg>